<svg width="216" height="30" viewBox="0 0 216 30" fill="none" xmlns="http://www.w3.org/2000/svg">
<path d="M107.513 29.2979L103.776 0.326172H109.099L111.86 25.4896H112.591L116.168 0.326172H125.428L128.999 25.4896H129.729L132.497 0.326172H137.82L134.083 29.2979H124.823L121.166 3.54719H120.435L116.778 29.2979H107.519H107.513Z" fill="#2050E9"/>
<path d="M141.323 29.2979V0.326172H159.603V5.29142H146.686V12.2044H158.462V17.1696H146.686V24.3326H159.848V29.2979H141.328H141.323Z" fill="#2050E9"/>
<path d="M164.338 29.2979V0.326172H182.618V5.29142H169.701V12.2044H181.477V17.1696H169.701V24.3326H182.863V29.2979H164.344H164.338Z" fill="#2050E9"/>
<path d="M186.851 29.2979V0.326172H192.214V11.8323H192.945L202.165 0.326172H209.028L197.167 14.6056L209.433 29.2979H202.364L192.939 17.5417H192.209V29.2979H186.846H186.851Z" fill="#2050E9"/>
<path d="M0.0869141 29.2979V0.326172H11.1838L17.6137 25.571H18.886V0.326172H24.249V29.2979H13.329L6.90479 4.0472H5.44993V29.2979H0.0869141Z" fill="#2050E9"/>
<path d="M29.6064 29.2979V0.326172H47.8864V5.29142H34.9695V12.2044H46.7453V17.1696H34.9695V24.3326H48.1317V29.2979H29.6064Z" fill="#2050E9"/>
<path d="M50.1968 29.2979L57.6708 0.326172H67.638L75.112 29.2979H69.5892L68.0488 22.9256H57.2657L55.7252 29.2979H50.2025H50.1968ZM58.5209 17.8731H66.7822L63.3305 3.75649H61.9726L58.5209 17.8731Z" fill="#2050E9"/>
<path d="M78.4556 0.326099H91.7661C95.1266 0.2854 98.7152 1.61683 100.324 4.81459C101.334 6.7565 101.408 9.1054 101.032 11.2334C100.484 14.2451 98.0933 16.6405 95.1836 17.3033C93.8315 17.5824 92.4451 17.6231 91.1271 17.6172L100.9 29.2978H93.7116L84.4633 17.6172H83.8243V29.292H78.4613V0.326099H78.4556ZM83.8186 12.9485H90.916C94.8584 12.9485 95.4632 10.3264 95.4632 9.09377C95.4632 6.27974 92.9642 5.15181 90.8533 5.24483H83.8186V12.9427V12.9485Z" fill="#2050E9"/>
<path d="M212.782 29.6871C212.462 29.6871 212.166 29.6289 211.886 29.5068C211.607 29.3847 211.361 29.2161 211.15 29.001C210.939 28.7859 210.774 28.5359 210.654 28.251C210.534 27.9661 210.477 27.6637 210.477 27.3382C210.477 27.0126 210.54 26.7102 210.66 26.4253C210.779 26.1405 210.945 25.8904 211.156 25.6753C211.367 25.4602 211.612 25.2916 211.892 25.1695C212.172 25.0474 212.468 24.9893 212.788 24.9893C213.107 24.9893 213.404 25.0474 213.683 25.1695C213.963 25.2916 214.208 25.4602 214.419 25.6753C214.631 25.8904 214.796 26.1405 214.916 26.4253C215.036 26.7102 215.098 27.0126 215.098 27.3382C215.098 27.6637 215.041 27.9661 214.921 28.251C214.802 28.5359 214.636 28.7859 214.425 29.001C214.214 29.2161 213.969 29.3847 213.689 29.5068C213.41 29.6289 213.113 29.6871 212.793 29.6871H212.782ZM212.782 29.1696C213.033 29.1696 213.267 29.1231 213.484 29.0301C213.701 28.937 213.895 28.8033 214.06 28.6347C214.225 28.4661 214.351 28.2742 214.448 28.0533C214.545 27.8324 214.585 27.594 214.585 27.344C214.585 27.0882 214.534 26.8498 214.442 26.6288C214.351 26.4079 214.22 26.2102 214.054 26.0416C213.889 25.873 213.701 25.7451 213.484 25.6463C213.267 25.5532 213.033 25.5067 212.788 25.5067C212.542 25.5067 212.308 25.5532 212.092 25.6463C211.875 25.7393 211.687 25.873 211.521 26.0416C211.356 26.2102 211.23 26.4021 211.133 26.6288C211.042 26.8498 210.991 27.0882 210.991 27.344C210.991 27.594 211.036 27.8324 211.127 28.0533C211.219 28.2742 211.35 28.4719 211.515 28.6347C211.681 28.8033 211.875 28.937 212.092 29.0301C212.308 29.1231 212.542 29.1754 212.793 29.1754L212.782 29.1696ZM211.504 27.3382C211.504 27.094 211.561 26.873 211.681 26.6753C211.795 26.4777 211.955 26.3149 212.149 26.1986C212.343 26.0823 212.565 26.0184 212.799 26.0184C213.005 26.0184 213.198 26.0649 213.37 26.1521C213.547 26.2451 213.689 26.3672 213.803 26.5242C213.917 26.6812 213.992 26.8556 214.02 27.0533H213.489C213.461 26.9021 213.381 26.7742 213.25 26.6812C213.119 26.5881 212.965 26.5358 212.799 26.5358C212.651 26.5358 212.52 26.5707 212.4 26.6463C212.28 26.716 212.183 26.8149 212.114 26.937C212.046 27.0591 212.006 27.1928 212.006 27.344C212.006 27.4951 212.04 27.6289 212.114 27.751C212.189 27.8731 212.28 27.9719 212.4 28.0417C212.52 28.1114 212.651 28.1521 212.799 28.1521C212.97 28.1521 213.113 28.1056 213.227 28.0068C213.341 27.9079 213.415 27.7858 213.45 27.6347H213.98C213.952 27.8324 213.883 28.0068 213.775 28.1638C213.666 28.3207 213.529 28.4428 213.358 28.5359C213.193 28.6289 213.005 28.6696 212.793 28.6696C212.554 28.6696 212.337 28.6114 212.143 28.4893C211.949 28.3731 211.789 28.2103 211.675 28.0126C211.561 27.8149 211.498 27.5882 211.498 27.3498L211.504 27.3382Z" fill="#2050E9"/>
</svg>
