<svg width="159" height="57" viewBox="0 0 159 57" fill="none" xmlns="http://www.w3.org/2000/svg">
<g clip-path="url(#clip0_1_6748)">
<path d="M39.1017 48.0154H33.8319C33.7829 48.0151 33.7342 48.0245 33.6888 48.0431C33.6434 48.0618 33.6021 48.0893 33.5673 48.1241C33.5325 48.1589 33.5049 48.2003 33.486 48.2459C33.4672 48.2915 33.4575 48.3404 33.4575 48.3898V56.5418C33.4575 56.6411 33.4966 56.7363 33.5663 56.8066C33.636 56.8768 33.7305 56.9162 33.8291 56.9162H34.9385C34.9873 56.9162 35.0357 56.9065 35.0808 56.8877C35.1259 56.8689 35.1668 56.8413 35.2013 56.8066C35.2359 56.7718 35.2632 56.7305 35.2819 56.6851C35.3006 56.6397 35.3102 56.591 35.3102 56.5418V53.4688H38.6718C38.721 53.4691 38.7699 53.4596 38.8155 53.4408C38.8611 53.422 38.9025 53.3942 38.9373 53.3591C38.9722 53.324 38.9998 53.2823 39.0184 53.2364C39.0371 53.1905 39.0466 53.1413 39.0462 53.0916V52.0803C39.0466 52.0307 39.0371 51.9814 39.0184 51.9355C38.9998 51.8896 38.9722 51.8479 38.9373 51.8128C38.9025 51.7777 38.8611 51.7499 38.8155 51.7311C38.7699 51.7123 38.721 51.7028 38.6718 51.7031H35.3102V49.7755H39.0906C39.1882 49.7755 39.2819 49.7368 39.3514 49.6678C39.421 49.5988 39.4608 49.505 39.4622 49.4067V48.3926C39.4636 48.3411 39.4548 48.2899 39.4362 48.2419C39.4176 48.1939 39.3897 48.1502 39.3541 48.1132C39.2855 48.0491 39.1951 48.0141 39.1017 48.0154Z" fill="black"/>
<path d="M46.7262 53.9465C47.1506 53.7309 47.514 53.4109 47.7829 53.0162C48.1426 52.4585 48.3245 51.8035 48.3044 51.1388C48.3272 50.7038 48.252 50.2692 48.0844 49.8676C47.9167 49.466 47.661 49.1079 47.3364 48.82C46.7096 48.2864 45.8303 48.0154 44.7181 48.0154H41.5507C41.4522 48.0154 41.3576 48.0549 41.2879 48.1251C41.2182 48.1953 41.1791 48.2905 41.1791 48.3898V56.5418C41.1791 56.591 41.1887 56.6397 41.2074 56.6851C41.2261 56.7305 41.2534 56.7718 41.2879 56.8065C41.3224 56.8413 41.3634 56.8689 41.4085 56.8877C41.4536 56.9065 41.5019 56.9162 41.5507 56.9162H42.6602C42.759 56.9162 42.8538 56.8768 42.9239 56.8067C42.9941 56.7366 43.0339 56.6414 43.0346 56.5418V54.3795H44.7181H44.9733L46.4627 56.7514C46.4959 56.8048 46.5421 56.8488 46.597 56.8791C46.6519 56.9094 46.7135 56.9251 46.7761 56.9246H48.0492C48.1172 56.9247 48.184 56.906 48.2422 56.8705C48.3004 56.835 48.3478 56.7842 48.3792 56.7234C48.4109 56.6631 48.4253 56.5952 48.4209 56.5271C48.4165 56.459 48.3934 56.3936 48.3543 56.3379L46.7262 53.9465ZM46.496 51.1723C46.5142 51.3717 46.4857 51.5725 46.413 51.7588C46.3403 51.9451 46.2253 52.1116 46.0772 52.2451C45.68 52.5228 45.2003 52.6549 44.7181 52.6195H43.0346V49.7783H44.7181C45.2 49.7428 45.6797 49.8718 46.08 50.1442C46.224 50.271 46.3365 50.4301 46.4083 50.6087C46.48 50.7873 46.5091 50.9803 46.4932 51.1723H46.496Z" fill="black"/>
<path d="M56.8219 55.1534H52.5479V53.3067H56.2007C56.2992 53.3067 56.3938 53.2673 56.4635 53.1971C56.5332 53.1269 56.5723 53.0317 56.5723 52.9324V51.9183C56.5723 51.8691 56.5627 51.8204 56.544 51.775C56.5254 51.7296 56.498 51.6883 56.4635 51.6536C56.429 51.6188 56.388 51.5912 56.3429 51.5724C56.2978 51.5536 56.2495 51.5439 56.2007 51.5439H52.5396V49.7783H56.6749C56.7735 49.7783 56.8681 49.7388 56.9378 49.6686C57.0075 49.5984 57.0466 49.5032 57.0466 49.4039V48.3898C57.0466 48.2905 57.0075 48.1953 56.9378 48.1251C56.8681 48.0549 56.7735 48.0154 56.6749 48.0154H51.064C50.9655 48.0154 50.8709 48.0549 50.8012 48.1251C50.7315 48.1953 50.6924 48.2905 50.6924 48.3898V56.5418C50.6924 56.591 50.702 56.6397 50.7207 56.6851C50.7393 56.7305 50.7667 56.7718 50.8012 56.8065C50.8357 56.8413 50.8767 56.8689 50.9218 56.8877C50.9669 56.9065 51.0152 56.9162 51.064 56.9162H56.8219C56.9205 56.9162 57.0151 56.8768 57.0848 56.8065C57.1545 56.7363 57.1936 56.6411 57.1936 56.5418V55.5277C57.1936 55.4284 57.1545 55.3332 57.0848 55.263C57.0151 55.1928 56.9205 55.1534 56.8219 55.1534Z" fill="black"/>
<path d="M65.5282 55.1533H61.2514V53.3067H64.9152C65.0138 53.3067 65.1083 53.2673 65.178 53.1971C65.2477 53.1269 65.2869 53.0316 65.2869 52.9324V51.9182C65.2869 51.819 65.2477 51.7237 65.178 51.6535C65.1083 51.5833 65.0138 51.5439 64.9152 51.5439H61.2514V49.7783H65.3867C65.4358 49.7786 65.4844 49.7692 65.5298 49.7506C65.5752 49.7319 65.6165 49.7044 65.6513 49.6696C65.6861 49.6348 65.7138 49.5934 65.7326 49.5478C65.7515 49.5022 65.7612 49.4533 65.7612 49.4039V48.3898C65.7612 48.3404 65.7515 48.2915 65.7326 48.2459C65.7138 48.2003 65.6861 48.1589 65.6513 48.1241C65.6165 48.0893 65.5752 48.0618 65.5298 48.0431C65.4844 48.0245 65.4358 48.0151 65.3867 48.0154H59.7703C59.6717 48.0154 59.5772 48.0549 59.5075 48.1251C59.4378 48.1953 59.3986 48.2905 59.3986 48.3898V56.5418C59.3986 56.591 59.4082 56.6397 59.4269 56.6851C59.4456 56.7305 59.473 56.7718 59.5075 56.8065C59.542 56.8413 59.583 56.8689 59.6281 56.8877C59.6731 56.9065 59.7215 56.9162 59.7703 56.9162H65.5282C65.577 56.9162 65.6253 56.9065 65.6704 56.8877C65.7155 56.8689 65.7565 56.8413 65.791 56.8065C65.8255 56.7718 65.8529 56.7305 65.8716 56.6851C65.8902 56.6397 65.8999 56.591 65.8999 56.5418V55.5277C65.8999 55.4284 65.8607 55.3332 65.791 55.263C65.7213 55.1928 65.6268 55.1533 65.5282 55.1533Z" fill="black"/>
<path d="M73.1194 55.1533H69.9576V48.3898C69.9576 48.3404 69.9479 48.2915 69.929 48.2459C69.9102 48.2003 69.8825 48.1589 69.8477 48.1241C69.8129 48.0893 69.7716 48.0618 69.7262 48.0431C69.6808 48.0245 69.6322 48.0151 69.5831 48.0154H68.4737C68.3751 48.0154 68.2806 48.0549 68.2109 48.1251C68.1412 48.1953 68.1021 48.2905 68.1021 48.3898V56.5418C68.1021 56.591 68.1117 56.6397 68.1303 56.6851C68.149 56.7305 68.1764 56.7718 68.2109 56.8065C68.2454 56.8413 68.2864 56.8689 68.3315 56.8877C68.3766 56.9065 68.4249 56.9162 68.4737 56.9162H73.1194C73.1682 56.9162 73.2166 56.9065 73.2617 56.8877C73.3067 56.8689 73.3477 56.8413 73.3822 56.8065C73.4167 56.7718 73.4441 56.7305 73.4628 56.6851C73.4815 56.6397 73.4911 56.591 73.4911 56.5418V55.5277C73.4911 55.4284 73.4519 55.3332 73.3822 55.263C73.3125 55.1928 73.218 55.1533 73.1194 55.1533Z" fill="black"/>
<path d="M79.7399 48.2389C79.7105 48.1725 79.6626 48.1161 79.6021 48.0764C79.5416 48.0368 79.471 48.0156 79.3988 48.0154H78.2422C78.1702 48.0151 78.0997 48.0361 78.0396 48.0758C77.9794 48.1156 77.9322 48.1723 77.9038 48.2389L74.2982 56.3882C74.2737 56.4456 74.2634 56.5081 74.2683 56.5704C74.2731 56.6327 74.2929 56.6929 74.3259 56.7458C74.36 56.7982 74.4065 56.8412 74.4612 56.8709C74.5159 56.9007 74.5771 56.9162 74.6393 56.9162H75.807C75.8797 56.9165 75.9508 56.8952 76.0115 56.855C76.0722 56.8147 76.1197 56.7573 76.1481 56.6899L76.897 54.9383H80.6718L81.429 56.6927C81.4592 56.7591 81.5076 56.8155 81.5685 56.8551C81.6295 56.8947 81.7004 56.9159 81.7729 56.9162H82.9739C83.0358 56.9164 83.0967 56.901 83.1512 56.8714C83.2057 56.8418 83.252 56.799 83.2859 56.7468C83.3198 56.6946 83.3402 56.6348 83.3453 56.5726C83.3504 56.5105 83.34 56.4481 83.315 56.391L79.7399 48.2389ZM79.9285 53.1726H77.6625L78.7886 50.5354L79.9285 53.1726Z" fill="black"/>
<path d="M92.1738 48.0154H91.0644C91.0153 48.0151 90.9667 48.0245 90.9213 48.0431C90.8759 48.0618 90.8346 48.0893 90.7998 48.1241C90.765 48.1589 90.7373 48.2003 90.7185 48.2459C90.6996 48.2915 90.6899 48.3404 90.6899 48.3898V53.5749L86.7376 48.1691C86.7035 48.1212 86.6585 48.0823 86.6064 48.0556C86.5542 48.0288 86.4965 48.0151 86.4381 48.0154H85.3286C85.2301 48.0154 85.1355 48.0549 85.0658 48.1251C84.9961 48.1953 84.957 48.2905 84.957 48.3898V56.5418C84.957 56.591 84.9666 56.6397 84.9853 56.6851C85.0039 56.7305 85.0313 56.7718 85.0658 56.8065C85.1003 56.8413 85.1413 56.8689 85.1864 56.8877C85.2315 56.9065 85.2798 56.9162 85.3286 56.9162H86.4381C86.4869 56.9162 86.5352 56.9065 86.5803 56.8877C86.6254 56.8689 86.6663 56.8413 86.7009 56.8065C86.7354 56.7718 86.7627 56.7305 86.7814 56.6851C86.8001 56.6397 86.8097 56.591 86.8097 56.5418V51.3707L90.762 56.7653C90.7971 56.812 90.8423 56.8499 90.8943 56.8761C90.9462 56.9022 91.0035 56.916 91.0616 56.9162H92.1849C92.2834 56.9162 92.378 56.8767 92.4477 56.8065C92.5174 56.7363 92.5565 56.6411 92.5565 56.5418V48.3898C92.5566 48.3397 92.5466 48.2901 92.5272 48.2439C92.5078 48.1977 92.4795 48.156 92.4438 48.121C92.4081 48.0861 92.3658 48.0588 92.3194 48.0407C92.273 48.0225 92.2235 48.0139 92.1738 48.0154Z" fill="black"/>
<path d="M101.787 54.3432C101.719 54.2702 101.625 54.227 101.526 54.2231C101.475 54.2178 101.424 54.2244 101.376 54.2423C101.328 54.2602 101.284 54.289 101.249 54.3264C100.964 54.5973 100.633 54.8149 100.273 54.969C99.8749 55.1446 99.4419 55.2237 99.0083 55.1999C98.5747 55.1761 98.1528 55.0501 97.7764 54.8321C97.3619 54.5907 97.0176 54.2439 96.7779 53.8264C96.5386 53.4043 96.4127 52.9267 96.4127 52.4407C96.4127 51.9547 96.5386 51.477 96.7779 51.055C97.0186 50.6398 97.3628 50.295 97.7764 50.0549C98.1967 49.8071 98.6762 49.6797 99.1632 49.6861C99.5456 49.6875 99.9234 49.7693 100.273 49.9264C100.633 50.0867 100.958 50.3174 101.229 50.6052C101.264 50.6444 101.307 50.6752 101.355 50.6955C101.403 50.7158 101.455 50.725 101.507 50.7226C101.56 50.7211 101.612 50.7081 101.66 50.6845C101.708 50.6609 101.75 50.6272 101.784 50.5857L102.442 49.7839C102.501 49.7118 102.531 49.6202 102.527 49.5267C102.523 49.4333 102.485 49.3447 102.419 49.2782C101.992 48.8517 101.483 48.5163 100.924 48.292C100.36 48.0638 99.7575 47.9463 99.1493 47.9456C98.3383 47.9386 97.5394 48.1436 96.8306 48.5407C96.1419 48.9261 95.5676 49.4892 95.1665 50.1722C94.7605 50.863 94.5487 51.6519 94.5535 52.4547C94.5481 53.2545 94.7545 54.0414 95.1513 54.7342C95.5481 55.4271 96.121 56.0009 96.8112 56.3966C97.5117 56.7974 98.3049 57.0046 99.1105 56.9972C99.7254 56.9942 100.333 56.8679 100.899 56.6257C101.472 56.3841 101.993 56.0353 102.436 55.5976C102.504 55.5277 102.541 55.4339 102.541 55.3364C102.541 55.2388 102.504 55.1451 102.436 55.0752L101.787 54.3432Z" fill="black"/>
<path d="M110.646 55.1534H106.372V53.3067H110.033C110.082 53.3067 110.13 53.297 110.175 53.2782C110.22 53.2594 110.261 53.2318 110.296 53.1971C110.33 53.1623 110.357 53.121 110.376 53.0756C110.395 53.0302 110.404 52.9815 110.404 52.9324V51.9183C110.404 51.8691 110.395 51.8204 110.376 51.775C110.357 51.7296 110.33 51.6883 110.296 51.6536C110.261 51.6188 110.22 51.5912 110.175 51.5724C110.13 51.5536 110.082 51.5439 110.033 51.5439H106.372V49.7783H110.507C110.606 49.7783 110.7 49.7388 110.77 49.6686C110.839 49.5984 110.879 49.5032 110.879 49.4039V48.3898C110.879 48.2905 110.839 48.1953 110.77 48.1251C110.7 48.0549 110.606 48.0154 110.507 48.0154H104.888C104.789 48.0154 104.695 48.0549 104.625 48.1251C104.555 48.1953 104.516 48.2905 104.516 48.3898V56.5418C104.516 56.591 104.526 56.6397 104.544 56.6851C104.563 56.7305 104.59 56.7718 104.625 56.8065C104.659 56.8413 104.7 56.8689 104.746 56.8877C104.791 56.9065 104.839 56.9162 104.888 56.9162H110.646C110.694 56.9162 110.743 56.9065 110.788 56.8877C110.833 56.8689 110.874 56.8413 110.908 56.8065C110.943 56.7718 110.97 56.7305 110.989 56.6851C111.008 56.6397 111.017 56.591 111.017 56.5418V55.5277C111.017 55.4284 110.978 55.3332 110.908 55.263C110.839 55.1928 110.744 55.1534 110.646 55.1534Z" fill="black"/>
<path d="M120.398 56.3295L118.77 53.9465C119.193 53.7301 119.557 53.4103 119.826 53.0162C120.185 52.458 120.367 51.8033 120.348 51.1388C120.37 50.7036 120.294 50.2689 120.126 49.8673C119.958 49.4658 119.702 49.1077 119.377 48.82C118.75 48.2864 117.871 48.0154 116.761 48.0154H113.594C113.545 48.0151 113.496 48.0245 113.451 48.0431C113.406 48.0618 113.364 48.0893 113.329 48.1241C113.295 48.1589 113.267 48.2003 113.248 48.2459C113.229 48.2915 113.22 48.3404 113.22 48.3898V56.5418C113.22 56.5912 113.229 56.6401 113.248 56.6857C113.267 56.7313 113.295 56.7727 113.329 56.8075C113.364 56.8423 113.406 56.8698 113.451 56.8885C113.496 56.9071 113.545 56.9165 113.594 56.9162H114.703C114.752 56.9162 114.801 56.9065 114.846 56.8877C114.891 56.8689 114.932 56.8413 114.966 56.8065C115.001 56.7718 115.028 56.7305 115.047 56.6851C115.065 56.6397 115.075 56.591 115.075 56.5418V54.3795H116.761H117.017L118.503 56.7513C118.537 56.8046 118.584 56.8485 118.639 56.8787C118.695 56.909 118.757 56.9248 118.819 56.9246H120.09C120.158 56.925 120.225 56.9064 120.283 56.8709C120.341 56.8354 120.389 56.7844 120.42 56.7234C120.453 56.6622 120.468 56.5929 120.464 56.5233C120.46 56.4537 120.437 56.3866 120.398 56.3295ZM118.539 51.1723C118.556 51.3709 118.527 51.5708 118.453 51.756C118.38 51.9412 118.265 52.1067 118.118 52.2395C117.722 52.5176 117.243 52.6498 116.761 52.6139H115.075V49.7783H116.761C117.243 49.7437 117.723 49.8725 118.123 50.1442C118.268 50.2707 118.381 50.4297 118.453 50.6083C118.525 50.7869 118.555 50.9801 118.539 51.1723Z" fill="black"/>
<path d="M64.6074 11.4263C63.8623 11.4263 63.1412 11.6911 62.5709 12.174C62.0007 12.6569 61.6179 13.327 61.4899 14.0663C59.3916 12.6205 56.9413 11.7789 54.4031 11.6323C51.865 11.4857 49.3352 12.0397 47.0866 13.2345C44.838 14.4293 42.9557 16.2196 41.6428 18.4125C40.3298 20.6054 39.6359 23.1176 39.6359 25.6784C39.6359 28.2392 40.3298 30.7514 41.6428 32.9442C42.9557 35.1371 44.838 36.9274 47.0866 38.1222C49.3352 39.317 51.865 39.871 54.4031 39.7244C56.9413 39.5778 59.3916 38.7362 61.4899 37.2904C61.6262 38.0772 62.0508 38.7838 62.6797 39.2703C63.3086 39.7568 64.0958 39.9878 64.8857 39.9176C65.6756 39.8473 66.4105 39.4809 66.945 38.891C67.4795 38.301 67.7746 37.5304 67.772 36.7317V14.6139C67.772 13.7685 67.4386 12.9577 66.8451 12.3599C66.2516 11.7621 65.4467 11.4263 64.6074 11.4263ZM53.6213 33.368C52.1116 33.368 50.6359 32.9171 49.3807 32.0723C48.1255 31.2275 47.1472 30.0268 46.5694 28.6219C45.9917 27.2171 45.8406 25.6712 46.1351 24.1799C46.4296 22.6885 47.1566 21.3185 48.224 20.2433C49.2915 19.1681 50.6516 18.4359 52.1322 18.1392C53.6128 17.8426 55.1475 17.9948 56.5422 18.5767C57.937 19.1586 59.129 20.1441 59.9677 21.4084C60.8065 22.6727 61.2541 24.1592 61.2541 25.6798C61.2519 27.7181 60.447 29.6724 59.0161 31.1137C57.5851 32.5551 55.645 33.3658 53.6213 33.368Z" fill="black"/>
<path d="M24.0939 44.406C23.7629 43.628 23.1386 43.0143 22.3584 42.7C21.5782 42.3856 20.7059 42.3963 19.9336 42.7298C19.1612 43.0632 18.5519 43.692 18.2399 44.4779C17.9278 45.2638 17.9384 46.1423 18.2694 46.9203L21.6976 54.9634C21.8615 55.3486 22.0991 55.6975 22.3969 55.9903C22.6946 56.283 23.0467 56.5138 23.4331 56.6694C23.8194 56.8251 24.2324 56.9025 24.6484 56.8974C25.0645 56.8923 25.4755 56.8047 25.8579 56.6396C26.2403 56.4745 26.5867 56.2352 26.8774 55.9352C27.168 55.6353 27.3971 55.2806 27.5516 54.8915C27.7061 54.5024 27.783 54.0864 27.778 53.6673C27.7729 53.2482 27.6859 52.8343 27.522 52.4491L24.0939 44.406Z" fill="black"/>
<path d="M13.9621 11.6023C11.2496 11.5994 8.59583 12.3978 6.32927 13.8987V3.18762C6.32927 2.34221 5.99585 1.53143 5.40237 0.933634C4.80889 0.33584 4.00395 0 3.16464 0C2.32532 0 1.52039 0.33584 0.926902 0.933634C0.333418 1.53143 2.755e-07 2.34221 2.755e-07 3.18762V25.6658C-0.000548276 28.4481 0.818086 31.168 2.35236 33.4817C3.88663 35.7953 6.06761 37.5986 8.61947 38.6636C11.1713 39.7286 13.9794 40.0074 16.6886 39.4648C19.3978 38.9221 21.8864 37.5823 23.8395 35.615C25.7927 33.6476 27.1228 31.141 27.6616 28.4121C28.2003 25.6832 27.9235 22.8547 26.8662 20.2843C25.8089 17.7139 24.0186 15.5171 21.7216 13.9717C19.4247 12.4263 16.7243 11.6017 13.9621 11.6023ZM13.9621 33.3569C12.4519 33.3569 10.9757 32.9058 9.71999 32.0607C8.46432 31.2156 7.48565 30.0144 6.90773 28.609C6.3298 27.2037 6.17859 25.6572 6.47321 24.1653C6.76784 22.6734 7.49506 21.303 8.56292 20.2274C9.63078 19.1518 10.9913 18.4193 12.4725 18.1225C13.9536 17.8257 15.4889 17.978 16.8841 18.5602C18.2794 19.1423 19.4719 20.1281 20.3109 21.3928C21.1499 22.6576 21.5977 24.1446 21.5977 25.6658C21.5955 27.7049 20.7904 29.6599 19.3589 31.1017C17.9274 32.5436 15.9865 33.3546 13.9621 33.3569Z" fill="black"/>
<path d="M84.5271 17.9915H91.2169C92.0404 17.9669 92.8219 17.6202 93.3958 17.0248C93.9696 16.4294 94.2906 15.6323 94.2906 14.8025C94.2906 13.9726 93.9696 13.1755 93.3958 12.5801C92.8219 11.9847 92.0404 11.638 91.2169 11.6134H84.5271C80.8234 11.6134 77.2713 13.0954 74.6524 15.7334C72.0335 18.3713 70.5622 21.9491 70.5622 25.6797C70.5622 29.4104 72.0335 32.9882 74.6524 35.6261C77.2713 38.2641 80.8234 39.7461 84.5271 39.7461H91.2169C92.0404 39.7215 92.8219 39.3748 93.3958 38.7794C93.9696 38.184 94.2906 37.3868 94.2906 36.557C94.2906 35.7272 93.9696 34.9301 93.3958 34.3347C92.8219 33.7393 92.0404 33.3926 91.2169 33.368H84.5271C82.5545 33.2922 80.6878 32.4496 79.3189 31.0171C77.9499 29.5846 77.1852 27.6737 77.1852 25.6853C77.1852 23.697 77.9499 21.786 79.3189 20.3535C80.6878 18.921 82.5545 18.0784 84.5271 18.0026V17.9915Z" fill="black"/>
<path d="M33.6988 0.00280762C32.8594 0.00280762 32.0545 0.338647 31.461 0.936442C30.8675 1.53424 30.5341 2.34502 30.5341 3.19043V36.9328C30.5341 37.3514 30.616 37.7659 30.775 38.1527C30.934 38.5394 31.1672 38.8908 31.461 39.1868C31.7549 39.4828 32.1037 39.7176 32.4877 39.8778C32.8717 40.038 33.2832 40.1204 33.6988 40.1204C34.1143 40.1204 34.5259 40.038 34.9098 39.8778C35.2938 39.7176 35.6426 39.4828 35.9365 39.1868C36.2304 38.8908 36.4635 38.5394 36.6225 38.1527C36.7815 37.7659 36.8634 37.3514 36.8634 36.9328V3.18763C36.8627 2.34271 36.5289 1.53264 35.9355 0.935453C35.3421 0.338262 34.5376 0.00280729 33.6988 0.00280762Z" fill="black"/>
<path d="M118.908 34.086L106.18 25.7803L119.202 17.2903C119.907 16.8309 120.402 16.1083 120.577 15.2816C120.753 14.4548 120.596 13.5916 120.14 12.8818C119.684 12.172 118.966 11.6737 118.145 11.4966C117.325 11.3195 116.468 11.4781 115.763 11.9375L103.52 19.9191V3.18763C103.496 2.35818 103.152 1.57095 102.561 0.992935C101.97 0.414921 101.178 0.0916138 100.354 0.0916138C99.5306 0.0916138 98.7392 0.414921 98.1481 0.992935C97.557 1.57095 97.2128 2.35818 97.1884 3.18763V36.9328C97.2128 37.7623 97.557 38.5495 98.1481 39.1275C98.7392 39.7055 99.5306 40.0288 100.354 40.0288C101.178 40.0288 101.97 39.7055 102.561 39.1275C103.152 38.5495 103.496 37.7623 103.52 36.9328V31.6415L115.469 39.4332C116.172 39.8574 117.012 39.9901 117.811 39.8032C118.609 39.6163 119.305 39.1245 119.75 38.4314C120.196 37.7383 120.358 36.8979 120.201 36.0874C120.043 35.2768 119.58 34.5593 118.908 34.086Z" fill="black"/>
<path d="M158.165 48.3172C157.944 48.3172 157.733 48.4055 157.577 48.5626C157.421 48.7198 157.333 48.933 157.333 49.1553V49.3536C156.712 48.8351 155.957 48.5054 155.157 48.403C154.357 48.3006 153.544 48.4297 152.814 48.7753C152.084 49.1209 151.467 49.6687 151.034 50.3546C150.602 51.0406 150.372 51.8363 150.372 52.6488C150.372 53.4613 150.602 54.2571 151.034 54.943C151.467 55.6289 152.084 56.1767 152.814 56.5223C153.544 56.8679 154.357 56.997 155.157 56.8946C155.957 56.7922 156.712 56.4625 157.333 55.944V56.1563C157.333 56.3786 157.421 56.5918 157.577 56.749C157.733 56.9061 157.944 56.9944 158.165 56.9944C158.386 56.9944 158.597 56.9061 158.754 56.749C158.91 56.5918 158.997 56.3786 158.997 56.1563V49.1553C158.997 48.933 158.91 48.7198 158.754 48.5626C158.597 48.4055 158.386 48.3172 158.165 48.3172ZM154.629 55.2512C154.117 55.2517 153.617 55.0994 153.192 54.8135C152.766 54.5276 152.434 54.121 152.238 53.6451C152.042 53.1692 151.991 52.6455 152.091 52.1401C152.19 51.6348 152.437 51.1706 152.798 50.8063C153.16 50.442 153.621 50.1939 154.122 50.0936C154.624 49.9932 155.144 50.045 155.617 50.2424C156.089 50.4398 156.493 50.774 156.777 51.2026C157.06 51.6312 157.212 52.135 157.211 52.6502C157.21 53.3396 156.937 54.0003 156.453 54.4877C155.969 54.9752 155.313 55.2497 154.629 55.2512Z" fill="#FFBF2F"/>
<path d="M130.859 48.3702C129.924 48.3704 129.016 48.684 128.277 49.2614V45.5402C128.277 45.3179 128.19 45.1047 128.034 44.9476C127.877 44.7904 127.666 44.7021 127.445 44.7021C127.224 44.7021 127.013 44.7904 126.857 44.9476C126.701 45.1047 126.613 45.3179 126.613 45.5402V52.6502C126.614 53.496 126.863 54.3227 127.33 55.0257C127.797 55.7287 128.46 56.2765 129.236 56.5998C130.012 56.9231 130.866 57.0074 131.69 56.842C132.513 56.6767 133.269 56.2691 133.863 55.6708C134.457 55.0725 134.861 54.3104 135.024 53.4808C135.188 52.6512 135.104 51.7913 134.782 51.0099C134.461 50.2286 133.917 49.5607 133.218 49.0909C132.52 48.621 131.699 48.3702 130.859 48.3702ZM130.859 55.2511C130.348 55.2517 129.848 55.0994 129.422 54.8135C128.997 54.5276 128.665 54.121 128.469 53.6451C128.273 53.1692 128.222 52.6454 128.321 52.1401C128.421 51.6348 128.667 51.1706 129.029 50.8063C129.39 50.442 129.851 50.1939 130.353 50.0935C130.855 49.9932 131.375 50.045 131.847 50.2424C132.32 50.4398 132.723 50.774 133.007 51.2026C133.291 51.6312 133.442 52.135 133.442 52.6502C133.441 53.3398 133.169 54.0009 132.684 54.4885C132.2 54.9761 131.544 55.2504 130.859 55.2511Z" fill="#FFBF2F"/>
<path d="M145.196 52.6502C145.196 51.8043 144.947 50.9773 144.48 50.2739C144.014 49.5706 143.351 49.0224 142.575 48.6986C141.799 48.3749 140.945 48.2902 140.121 48.4552C139.298 48.6203 138.541 49.0276 137.947 49.6258C137.353 50.224 136.949 50.9861 136.785 51.8158C136.621 52.6455 136.705 53.5055 137.027 54.287C137.348 55.0686 137.892 55.7366 138.59 56.2065C139.289 56.6765 140.11 56.9274 140.95 56.9274H144.261C144.482 56.9274 144.694 56.8391 144.85 56.6819C145.006 56.5247 145.093 56.3115 145.093 56.0893C145.093 55.867 145.006 55.6538 144.85 55.4966C144.694 55.3394 144.482 55.2512 144.261 55.2512H140.95C140.411 55.2501 139.886 55.0797 139.448 54.7637C139.01 54.4477 138.681 54.0018 138.506 53.4883H144.364C144.585 53.4883 144.796 53.4 144.952 53.2429C145.108 53.0857 145.196 52.8725 145.196 52.6502ZM138.506 51.8121C138.68 51.2977 139.009 50.8509 139.447 50.5345C139.886 50.2181 140.412 50.048 140.951 50.048C141.49 50.048 142.016 50.2181 142.455 50.5345C142.893 50.8509 143.222 51.2977 143.396 51.8121H138.506Z" fill="#FFBF2F"/>
<path d="M149.756 46.7359H148.458V45.5402C148.458 45.3179 148.37 45.1047 148.214 44.9476C148.058 44.7904 147.846 44.7021 147.626 44.7021C147.405 44.7021 147.193 44.7904 147.037 44.9476C146.881 45.1047 146.794 45.3179 146.794 45.5402V56.1563C146.794 56.3786 146.881 56.5917 147.037 56.7489C147.193 56.9061 147.405 56.9944 147.626 56.9944C147.846 56.9944 148.058 56.9061 148.214 56.7489C148.37 56.5917 148.458 56.3786 148.458 56.1563V48.4121H149.756C149.976 48.4121 150.188 48.3238 150.344 48.1666C150.5 48.0095 150.588 47.7963 150.588 47.574C150.588 47.3517 150.5 47.1386 150.344 46.9814C150.188 46.8242 149.976 46.7359 149.756 46.7359Z" fill="#FFBF2F"/>
</g>
<defs>
<clipPath id="clip0_1_6748">
<rect width="159" height="57" fill="white"/>
</clipPath>
</defs>
</svg>
