<svg width="168" height="31" viewBox="0 0 168 31" fill="none" xmlns="http://www.w3.org/2000/svg">
<path d="M26.3912 7.45446L13.4432 0.0437017C13.3932 0.0150723 13.3365 0 13.2787 0C13.2209 0 13.1642 0.0150723 13.1141 0.0437017L5.13377 4.61039C5.08374 4.63902 5.0422 4.6802 5.01332 4.72978C4.98443 4.77937 4.96923 4.83562 4.96922 4.89287V19.717C4.96923 19.7743 4.98443 19.8305 5.01332 19.8801C5.0422 19.9297 5.08374 19.9709 5.13377 19.9995L13.1471 24.5854C13.1971 24.6141 13.2538 24.6291 13.3116 24.6291C13.3694 24.6291 13.4261 24.6141 13.4761 24.5854L21.4878 19.9988C21.5378 19.9702 21.5793 19.929 21.6082 19.8794C21.6371 19.8299 21.6523 19.7736 21.6523 19.7164V10.5455C21.6523 10.4882 21.6371 10.432 21.6082 10.3824C21.5793 10.3328 21.5378 10.2916 21.4878 10.263L13.4761 5.67704C13.4261 5.64841 13.3694 5.63334 13.3116 5.63334C13.2538 5.63334 13.1971 5.64841 13.1471 5.67704L8.09556 8.56808C8.04553 8.59671 7.98878 8.61178 7.93102 8.61178C7.87325 8.61178 7.8165 8.59671 7.76647 8.56808C7.71645 8.53946 7.6749 8.49828 7.64602 8.44869C7.61713 8.39911 7.60193 8.34286 7.60193 8.2856V6.39988C7.60193 6.34263 7.61713 6.28638 7.64602 6.23679C7.6749 6.18721 7.71644 6.14603 7.76647 6.1174L13.1141 3.05706C13.1642 3.02844 13.2209 3.01336 13.2787 3.01336C13.3365 3.01336 13.3932 3.02844 13.4432 3.05706L23.7601 8.96114C23.8102 8.98977 23.8517 9.03095 23.8806 9.08053C23.9095 9.13012 23.9247 9.18637 23.9247 9.24363V21.0518C23.9247 21.109 23.9095 21.1653 23.8806 21.2149C23.8517 21.2645 23.8102 21.3056 23.7601 21.3343L13.4432 27.2383C13.3932 27.267 13.3365 27.282 13.2787 27.282C13.2209 27.282 13.1642 27.267 13.1141 27.2383L2.79725 21.3343C2.74722 21.3056 2.70568 21.2645 2.67679 21.2149C2.64791 21.1653 2.6327 21.109 2.6327 21.0518V6.60702C2.6327 6.54976 2.61749 6.49351 2.58861 6.44392C2.55973 6.39434 2.51818 6.35316 2.46815 6.32453C2.41813 6.2959 2.36138 6.28083 2.30361 6.28083C2.24585 6.28083 2.1891 6.2959 2.13907 6.32453L0.164544 7.45446C0.114517 7.48309 0.072975 7.52427 0.0440916 7.57385C0.0152082 7.62344 1.46747e-06 7.67969 0 7.73694V22.5581C1.46747e-06 22.6154 0.0152082 22.6716 0.0440916 22.7212C0.072975 22.7708 0.114517 22.812 0.164544 22.8406L13.1141 30.2514C13.1642 30.28 13.2209 30.2951 13.2787 30.2951C13.3365 30.2951 13.3932 30.28 13.4432 30.2514L26.3928 22.8406C26.4429 22.812 26.4844 22.7708 26.5133 22.7212C26.5422 22.6716 26.5574 22.6154 26.5574 22.5581V7.73694C26.5572 7.67953 26.5418 7.62317 26.5126 7.57357C26.4834 7.52397 26.4415 7.48288 26.3912 7.45446ZM7.76482 11.7697L13.1471 8.6904C13.1971 8.66177 13.2538 8.6467 13.3116 8.6467C13.3694 8.6467 13.4261 8.66177 13.4761 8.6904L18.8567 11.7697C18.9068 11.7983 18.9483 11.8395 18.9772 11.889C19.0061 11.9386 19.0213 11.9949 19.0213 12.0521V18.2103C19.0213 18.2676 19.0061 18.3238 18.9772 18.3734C18.9483 18.423 18.9068 18.4642 18.8567 18.4928L13.4761 21.5721C13.4261 21.6007 13.3694 21.6158 13.3116 21.6158C13.2538 21.6158 13.1971 21.6007 13.1471 21.5721L7.76647 18.4928C7.71644 18.4642 7.6749 18.423 7.64602 18.3734C7.61713 18.3238 7.60193 18.2676 7.60193 18.2103V12.0521C7.60193 11.9949 7.61713 11.9386 7.64602 11.889C7.6749 11.8395 7.71644 11.7983 7.76647 11.7697H7.76482Z" fill="#F1B729"/>
<path d="M39.1475 22.1422C39.1475 22.461 39.4067 22.7194 39.7266 22.7194H43.8126C47.4655 22.7194 49.0939 20.7455 49.0939 18.2234C49.0939 16.8112 48.4992 15.9274 47.6664 15.3151C47.3165 15.0578 47.2721 14.5181 47.5804 14.2124C48.218 13.5802 48.6318 12.8199 48.6318 11.8412C48.6318 9.53839 47.2015 7.80578 43.3505 7.80578H39.7266C39.4067 7.80578 39.1475 8.06418 39.1475 8.38293V22.1422ZM42.5873 13.7274C42.2674 13.7274 42.0082 13.469 42.0082 13.1502V11.0147C42.0082 10.696 42.2674 10.4376 42.5873 10.4376H43.3505C44.8249 10.4376 45.551 11.0736 45.551 12.0605C45.551 13.3764 44.6268 13.7274 43.3725 13.7274H42.5873ZM42.5873 20.0876C42.2674 20.0876 42.0082 19.8292 42.0082 19.5104V16.717C42.0082 16.3983 42.2674 16.1399 42.5873 16.1399H43.1304C44.3848 16.1399 46.0132 16.1399 46.0132 18.1137C46.0132 19.3419 45.287 20.0876 43.8126 20.0876H42.5873Z" fill="#424250"/>
<path d="M51.3321 22.1422C51.3321 22.461 51.5914 22.7194 51.9112 22.7194H58.609C58.9288 22.7194 59.1881 22.461 59.1881 22.1422V20.6647C59.1881 20.346 58.9288 20.0876 58.609 20.0876H54.7719C54.4521 20.0876 54.1928 19.8292 54.1928 19.5104V17.046C54.1928 16.7272 54.4521 16.4688 54.7719 16.4688H58.4109C58.7307 16.4688 58.99 16.2104 58.99 15.8917V14.4142C58.99 14.0954 58.7307 13.837 58.4109 13.837H54.7719C54.4521 13.837 54.1928 13.5786 54.1928 13.2599V11.0147C54.1928 10.696 54.4521 10.4376 54.7719 10.4376H58.4989C58.8188 10.4376 59.078 10.1792 59.078 9.86044V8.38293C59.078 8.06418 58.8188 7.80578 58.4989 7.80578H51.9112C51.5914 7.80578 51.3321 8.06418 51.3321 8.38293V22.1422Z" fill="#424250"/>
<path d="M61.7116 22.1422C61.7116 22.461 61.9709 22.7194 62.2907 22.7194H68.9885C69.3083 22.7194 69.5676 22.461 69.5676 22.1422V20.6647C69.5676 20.346 69.3083 20.0876 68.9885 20.0876H65.1514C64.8316 20.0876 64.5723 19.8292 64.5723 19.5104V17.046C64.5723 16.7272 64.8316 16.4688 65.1514 16.4688H68.7904C69.1103 16.4688 69.3695 16.2104 69.3695 15.8917V14.4142C69.3695 14.0954 69.1103 13.837 68.7904 13.837H65.1514C64.8316 13.837 64.5723 13.5786 64.5723 13.2599V11.0147C64.5723 10.696 64.8316 10.4376 65.1514 10.4376H68.8785C69.1983 10.4376 69.4576 10.1792 69.4576 9.86044V8.38293C69.4576 8.06418 69.1983 7.80578 68.8785 7.80578H62.2907C61.9709 7.80578 61.7116 8.06418 61.7116 8.38293V22.1422Z" fill="#424250"/>
<path d="M78.258 22.4525C78.3643 22.6187 78.5485 22.7194 78.7463 22.7194H80.7893C81.2453 22.7194 81.5224 22.2185 81.279 21.8342L78.382 17.2598C78.2627 17.0714 78.2629 16.8314 78.3824 16.6431L80.925 12.6393C81.169 12.255 80.892 11.7535 80.4356 11.7535H78.7381C78.5328 11.7535 78.3428 11.8618 78.2388 12.0382L77.196 13.8065C76.9757 14.1799 76.4365 14.1874 76.2059 13.8202L75.078 12.0244C74.9721 11.8559 74.7867 11.7535 74.5872 11.7535H72.5062C72.0496 11.7535 71.7726 12.2556 72.0172 12.6398L74.5785 16.6633C74.6989 16.8525 74.6987 17.0939 74.5779 17.2828L71.6684 21.832C71.4227 22.2162 71.6996 22.7194 72.1568 22.7194H74.031C74.2338 22.7194 74.4218 22.6136 74.5267 22.4406L75.8558 20.2475C76.0779 19.8811 76.6089 19.8747 76.8398 20.2356L78.258 22.4525Z" fill="#424250"/>
<path d="M86.3577 12.3306C86.3577 12.0119 86.0985 11.7535 85.7786 11.7535H84.1879C83.8674 11.7535 83.6078 12.0129 83.6088 12.3324L83.6494 25.982C83.6503 26.3001 83.9093 26.5574 84.2284 26.5574H85.9301C86.2509 26.5574 86.5106 26.2974 86.5091 25.9777L86.4898 21.7105C87.1939 22.4562 88.2062 22.9387 89.5485 22.9387C92.8493 22.9387 95.1379 20.3727 95.1379 17.2364C95.1379 14.0783 92.8493 11.5342 89.5485 11.5342C88.1842 11.5342 87.1279 12.1263 86.3577 13.0036V12.3306ZM89.4165 13.9467C90.8468 13.9467 92.1672 15.131 92.1672 17.2364C92.1672 19.3419 90.8468 20.5262 89.4165 20.5262C87.8101 20.5262 86.6438 19.298 86.4898 17.697L86.4678 16.8197C86.5998 15.1968 87.8101 13.9467 89.4165 13.9467Z" fill="#424250"/>
<path d="M106.936 18.3769C107.009 18.3769 107.068 18.318 107.068 18.2453C107.398 13.6396 104.977 11.5342 101.919 11.5342C98.7939 11.5342 96.6814 14.1002 96.6814 17.2364C96.6814 20.6139 98.9039 22.9387 102.535 22.9387C103.708 22.9387 104.939 22.9003 106.497 22.2135C106.7 22.1243 106.826 21.9214 106.826 21.7006V20.4114C106.826 20.0037 106.413 19.7246 106.024 19.851C104.868 20.2266 103.826 20.3727 102.623 20.3727C101.327 20.3727 100.472 19.9763 100.024 19.0634C99.8594 18.7293 100.141 18.3769 100.515 18.3769H106.936ZM104.191 15.4353C104.306 15.764 104.03 16.0741 103.681 16.0741H100.442C100.078 16.0741 99.7989 15.7395 99.9324 15.402C100.303 14.4642 101.025 13.9467 102.073 13.9467C103.078 13.9467 103.856 14.4764 104.191 15.4353Z" fill="#424250"/>
<path d="M109.244 22.1422C109.244 22.461 109.504 22.7194 109.823 22.7194H111.526C111.846 22.7194 112.105 22.461 112.105 22.1422V16.2569C112.105 16.1516 112.133 16.0477 112.192 15.9603C112.777 15.0945 113.756 14.5388 115.054 14.5388C115.151 14.5388 115.248 14.5422 115.345 14.5489C115.725 14.5752 116.088 14.2984 116.088 13.9192V12.0772C116.088 11.853 115.961 11.6366 115.743 11.5801C115.596 11.5419 115.465 11.5342 115.296 11.5342C113.821 11.5342 112.787 12.3237 112.061 13.3326V12.3307C112.061 12.0119 111.802 11.7535 111.482 11.7535H109.823C109.504 11.7535 109.244 12.0119 109.244 12.3307V22.1422Z" fill="#424250"/>
<path d="M117.639 8.83657C117.639 9.91123 118.321 10.5911 119.443 10.5911C120.566 10.5911 121.248 9.91123 121.248 8.83657C121.248 7.76192 120.566 7.08203 119.443 7.08203C118.321 7.08203 117.639 7.76192 117.639 8.83657ZM118.013 22.1422C118.013 22.461 118.272 22.7194 118.592 22.7194H120.295C120.615 22.7194 120.874 22.461 120.874 22.1422V12.3307C120.874 12.0119 120.615 11.7535 120.295 11.7535H118.592C118.272 11.7535 118.013 12.0119 118.013 12.3307V22.1422Z" fill="#424250"/>
<path d="M133.261 18.3769C133.334 18.3769 133.393 18.318 133.393 18.2453C133.723 13.6396 131.302 11.5342 128.244 11.5342C125.119 11.5342 123.006 14.1002 123.006 17.2364C123.006 20.6139 125.229 22.9387 128.86 22.9387C130.033 22.9387 131.264 22.9003 132.822 22.2135C133.025 22.1243 133.151 21.9214 133.151 21.7006V20.4114C133.151 20.0037 132.738 19.7246 132.349 19.851C131.193 20.2266 130.151 20.3727 128.948 20.3727C127.651 20.3727 126.797 19.9763 126.348 19.0634C126.184 18.7293 126.466 18.3769 126.84 18.3769H133.261ZM130.516 15.4353C130.631 15.764 130.355 16.0741 130.006 16.0741H126.767C126.403 16.0741 126.124 15.7395 126.257 15.402C126.628 14.4642 127.35 13.9467 128.398 13.9467C129.403 13.9467 130.181 14.4764 130.516 15.4353Z" fill="#424250"/>
<path d="M135.569 22.1422C135.569 22.461 135.828 22.7194 136.148 22.7194H137.851C138.171 22.7194 138.43 22.461 138.43 22.1422V15.7681C138.43 15.653 138.463 15.5398 138.532 15.4476C139.134 14.6433 140.079 14.0563 141.181 14.0563C142.127 14.0563 142.831 14.6046 142.831 15.9644V22.1422C142.831 22.461 143.09 22.7194 143.41 22.7194H145.113C145.432 22.7194 145.692 22.461 145.692 22.1422V15.5258C145.692 12.7843 144.305 11.5342 141.819 11.5342C140.322 11.5342 139.178 12.1044 138.386 12.9817V12.3307C138.386 12.0119 138.127 11.7535 137.807 11.7535H136.148C135.828 11.7535 135.569 12.0119 135.569 12.3307V22.1422Z" fill="#424250"/>
<path d="M153.664 20.5262C151.706 20.5262 150.54 19.2761 150.54 17.2364C150.54 15.1968 151.728 13.9467 153.664 13.9467C154.531 13.9467 155.141 14.038 155.636 14.15C156.009 14.2344 156.371 13.9648 156.371 13.5835V12.3603C156.371 12.0942 156.189 11.8615 155.928 11.8071C155.136 11.6425 154.275 11.5342 153.554 11.5342C150.012 11.5342 147.569 14.1002 147.569 17.2364C147.569 20.3946 150.056 22.9387 153.642 22.9387C154.362 22.9387 155.253 22.8307 156.041 22.6664C156.301 22.6121 156.481 22.3801 156.481 22.1152V20.9051C156.481 20.5191 156.109 20.2469 155.732 20.3322C155.19 20.4545 154.597 20.5262 153.664 20.5262Z" fill="#424250"/>
<path d="M167.838 18.3769C167.911 18.3769 167.97 18.318 167.97 18.2453C168.3 13.6396 165.879 11.5342 162.82 11.5342C159.696 11.5342 157.583 14.1002 157.583 17.2364C157.583 20.6139 159.806 22.9387 163.437 22.9387C164.61 22.9387 165.841 22.9003 167.399 22.2135C167.602 22.1243 167.728 21.9214 167.728 21.7006V20.4114C167.728 20.0037 167.315 19.7246 166.926 19.851C165.77 20.2266 164.728 20.3727 163.525 20.3727C162.228 20.3727 161.374 19.9763 160.925 19.0634C160.761 18.7293 161.043 18.3769 161.416 18.3769H167.838ZM165.093 15.4353C165.208 15.764 164.932 16.0741 164.582 16.0741H161.344C160.98 16.0741 160.701 15.7395 160.834 15.402C161.205 14.4642 161.927 13.9467 162.975 13.9467C163.98 13.9467 164.758 14.4764 165.093 15.4353Z" fill="#424250"/>
</svg>
