<svg width="36" height="36" viewBox="0 0 36 36" fill="none" xmlns="http://www.w3.org/2000/svg">
<path d="M18.1016 3L1 13.6887L18.1016 24.3775L35.2032 13.6887L18.1016 3ZM18.1016 5.52131L31.17 13.6887L18.1016 21.8561L5.03325 13.6887L18.1016 5.52131Z" fill="#A463B0"/>
<g opacity="0.5">
<path d="M28.7904 17.6993V24.379C28.7904 26.4663 27.0333 27.9485 25.9848 28.648C23.9098 30.0306 21.1107 30.7932 18.1017 30.7932C15.0927 30.7932 12.2939 30.0306 10.2186 28.648C9.17039 27.9485 7.41298 26.4663 7.41298 24.379V17.6993L5.27588 16.3623V24.379C5.27588 29.1021 11.0177 32.9303 18.1017 32.9303C25.1857 32.9303 30.9278 29.1021 30.9278 24.379V16.3623L28.7904 17.6993Z" fill="#A463B0"/>
</g>
</svg>
