<svg width="36" height="36" viewBox="0 0 36 36" fill="none" xmlns="http://www.w3.org/2000/svg">
<g opacity="0.5">
<path d="M35.2032 5.27588H1V35.2049H35.2032V5.27588ZM33.0661 33.0662H3.1371V7.41297H33.0661V33.0662Z" fill="#EAB44E"/>
</g>
<path d="M23.6681 13.5C21.2562 13.5 19.6973 15.096 19.6973 17.21C19.6973 19.5025 21.0006 20.5997 22.9606 21.4625L23.6377 21.7652C24.8784 22.3305 25.6164 22.6595 25.6164 23.6237C25.6164 24.4375 24.8936 25.022 23.768 25.022C22.4342 25.022 21.6759 24.2905 21.0971 23.3087L18.8797 24.6212C19.6651 26.2505 21.3052 27.5 23.8306 27.5C26.4034 27.5 28.333 26.121 28.333 23.594C28.333 21.2315 27.0297 20.1832 24.7125 19.17L24.0388 18.869C22.8658 18.337 22.3665 17.9888 22.3665 17.1575C22.3665 16.475 22.8642 15.943 23.6698 15.943C24.4569 15.943 24.9528 16.293 25.42 17.1575L27.5459 15.7453C26.6455 14.1178 25.4048 13.5 23.6698 13.5H23.6681ZM13.7663 13.668V23.2283C13.7663 24.6248 13.1874 24.987 12.3022 24.987C11.3713 24.987 10.9684 24.3238 10.5503 23.5415L8.33301 24.924C8.9762 26.3362 10.244 27.5 12.4156 27.5C14.8259 27.5 16.4847 26.17 16.4847 23.258V13.668H13.768H13.7663Z" fill="#EAB44E"/>
<path d="M35.2032 1H1V3.13709H35.2032V1Z" fill="#EAB44E"/>
</svg>
