<svg width="36" height="36" viewBox="0 0 36 36" fill="none" xmlns="http://www.w3.org/2000/svg">
<path d="M18.1014 1C14.5601 1 11.6885 3.87155 11.6885 7.4129C11.6885 10.9555 14.5601 13.8258 18.1014 13.8258C21.6427 13.8258 24.5143 10.9555 24.5143 7.4129C24.5143 3.87155 21.6427 1 18.1014 1ZM18.1014 3.13707C20.4581 3.13707 22.3772 5.05588 22.3772 7.4129C22.3772 9.77088 20.4581 11.6887 18.1014 11.6887C15.7444 11.6887 13.8256 9.77088 13.8256 7.4129C13.8256 5.05588 15.7444 3.13707 18.1014 3.13707Z" fill="#EAB44E"/>
<path d="M18.1014 22.3809C14.5601 22.3809 11.6885 25.2524 11.6885 28.7938C11.6885 32.3364 14.5601 35.2067 18.1014 35.2067C21.6427 35.2067 24.5143 32.3364 24.5143 28.7938C24.5143 25.2524 21.6427 22.3809 18.1014 22.3809ZM18.1014 24.518C20.4581 24.518 22.3772 26.4367 22.3772 28.7938C22.3772 31.1517 20.4581 33.0695 18.1014 33.0695C15.7444 33.0695 13.8256 31.1517 13.8256 28.7938C13.8256 26.4367 15.7444 24.518 18.1014 24.518Z" fill="#EAB44E"/>
<path d="M28.7903 11.6919C25.249 11.6919 22.3774 14.5634 22.3774 18.1048C22.3774 21.6474 25.249 24.5177 28.7903 24.5177C32.3317 24.5177 35.2032 21.6474 35.2032 18.1048C35.2032 14.5634 32.3317 11.6919 28.7903 11.6919ZM28.7903 13.829C31.147 13.829 33.0662 15.7478 33.0662 18.1048C33.0662 20.4628 31.147 22.3806 28.7903 22.3806C26.4333 22.3806 24.5145 20.4628 24.5145 18.1048C24.5145 15.7478 26.4333 13.829 28.7903 13.829Z" fill="#EAB44E"/>
<path d="M7.4129 11.6919C3.87155 11.6919 1 14.5634 1 18.1048C1 21.6474 3.87155 24.5177 7.4129 24.5177C10.9542 24.5177 13.8258 21.6474 13.8258 18.1048C13.8258 14.5634 10.9542 11.6919 7.4129 11.6919ZM7.4129 13.829C9.76959 13.829 11.6887 15.7478 11.6887 18.1048C11.6887 20.4628 9.76959 22.3806 7.4129 22.3806C5.05588 22.3806 3.13711 20.4628 3.13711 18.1048C3.13711 15.7478 5.05588 13.829 7.4129 13.829Z" fill="#EAB44E"/>
<g opacity="0.5">
<path d="M18.1016 1C8.65675 1 1 8.65671 1 18.1016C1 27.5465 8.65675 35.2032 18.1016 35.2032C27.5465 35.2032 35.2032 27.5465 35.2032 18.1016C35.2032 8.65671 27.5465 1 18.1016 1ZM18.1016 3.13707C26.3525 3.13707 33.0661 9.85042 33.0661 18.1016C33.0661 26.3524 26.3525 33.0661 18.1016 33.0661C9.85046 33.0661 3.13711 26.3524 3.13711 18.1016C3.13711 9.85042 9.85046 3.13707 18.1016 3.13707Z" fill="#EAB44E"/>
</g>
</svg>
