<svg width="36" height="36" viewBox="0 0 36 36" fill="none" xmlns="http://www.w3.org/2000/svg">
<g opacity="0.5">
<path d="M18.102 1C8.65675 1 1 8.65675 1 18.1016C1 27.5465 8.65675 35.2032 18.102 35.2032C27.5468 35.2032 35.2036 27.5465 35.2036 18.1016C35.2036 8.65675 27.5468 1 18.102 1ZM18.102 3.13711C26.3528 3.13711 33.0661 9.85046 33.0661 18.1016C33.0661 26.3525 26.3528 33.0661 18.102 33.0661C9.85078 33.0661 3.13743 26.3525 3.13743 18.1016C3.13743 9.85046 9.85078 3.13711 18.102 3.13711Z" fill="#E4935B"/>
</g>
<path d="M18.1013 13.8262C12.1975 13.8262 7.4126 18.6114 7.4126 24.5149C7.4126 30.4184 12.1975 35.2036 18.1013 35.2036C24.0049 35.2036 28.79 30.4184 28.79 24.5149C28.79 18.6114 24.0049 13.8262 18.1013 13.8262ZM18.1013 15.9633C22.8163 15.9633 26.6526 19.7999 26.6526 24.5149C26.6526 29.2299 22.8163 33.0662 18.1013 33.0662C13.386 33.0662 9.5497 29.2299 9.5497 24.5149C9.5497 19.7999 13.386 15.9633 18.1013 15.9633Z" fill="#E4935B"/>
</svg>
