<svg width="36" height="36" viewBox="0 0 36 36" fill="none" xmlns="http://www.w3.org/2000/svg">
<path d="M35.2032 1H6.34435C3.39162 1 1 3.3932 1 6.34432C1 9.29544 3.39162 11.6887 6.34435 11.6887H35.2032V1ZM33.0661 3.13707V9.55158H6.34435C4.57627 9.55158 3.13709 8.11241 3.13709 6.34432C3.13709 4.57624 4.57627 3.13707 6.34435 3.13707H33.0661Z" fill="#E4935B"/>
<g opacity="0.5">
<path d="M35.2034 15.9639H19.1703C16.2192 15.9639 13.8259 18.3571 13.8259 21.3082C13.8259 24.2594 16.2192 26.6526 19.1703 26.6526H35.2034V15.9639ZM33.0663 18.101V24.5155H19.1703C17.4022 24.5155 15.963 23.0763 15.963 21.3082C15.963 19.5401 17.4022 18.101 19.1703 18.101H33.0663Z" fill="#E4935B"/>
</g>
<g opacity="0.5">
<path d="M35.2035 5.27539H6.34459C5.75436 5.27539 5.27441 5.7537 5.27441 6.34392C5.27441 6.93415 5.75436 7.41246 6.34459 7.41246H35.2035V5.27539Z" fill="#E4935B"/>
</g>
<path d="M35.2032 1H6.34435C3.39162 1 1 3.39321 1 6.34432V29.8588C1 32.8116 3.39162 35.2032 6.34435 35.2032H35.2032V1ZM33.0661 3.13707V33.0661H6.34435C4.57627 33.0661 3.13709 31.6269 3.13709 29.8588V6.34432C3.13709 4.57624 4.57627 3.13707 6.34435 3.13707H33.0661Z" fill="#E4935B"/>
</svg>
