<svg width="39" height="39" viewBox="0 0 39 39" fill="none" xmlns="http://www.w3.org/2000/svg">
<path d="M19.4996 1C15.8402 1 12.2641 2.08501 9.2218 4.11781C6.17963 6.15062 3.80836 9.03992 2.40813 12.4204C1.00803 15.8008 0.641661 19.5206 1.35547 23.1092C2.06928 26.6979 3.83123 29.9943 6.41837 32.5815C9.00565 35.1688 12.3022 36.9308 15.891 37.6445C19.4799 38.3583 23.1986 37.992 26.5799 36.5918C29.9597 35.1915 32.8497 32.8203 34.8813 29.7781C36.9143 26.7358 38 23.1589 38 19.5C38 14.5935 36.0503 9.88796 32.5815 6.41853C29.1112 2.94911 24.4057 1 19.4996 1ZM19.4996 34.9135C19.4996 30.8256 17.8761 26.905 14.9847 24.0146C12.0947 21.1239 8.17438 19.5 4.08648 19.5C8.17438 19.5 12.0947 17.8761 14.9847 14.9855C17.8761 12.0949 19.4996 8.17447 19.4996 4.08658C19.4996 8.17447 21.1232 12.0949 24.0146 14.9855C26.9046 17.8761 30.8252 19.5 34.9138 19.5C30.8252 19.5 26.9046 21.1239 24.0146 24.0146C21.1232 26.905 19.4996 30.8256 19.4996 34.9135Z" stroke="#42B8BF" stroke-width="2"/>
</svg>
