<svg width="53" height="48" viewBox="0 0 53 48" fill="inherit" xmlns="http://www.w3.org/2000/svg">
<path d="M26.3294 32.6489C19.0144 32.6489 13.083 38.5789 13.083 45.8958H39.5762C39.5762 38.5789 33.6448 32.6489 26.3294 32.6489ZM26.3294 35.9193C30.6863 35.9193 34.3975 38.7274 35.7557 42.626H16.9055C18.2618 38.7274 21.975 35.9193 26.3294 35.9193Z" fill="inherit"/>
<path d="M26.2061 16.458C22.1407 16.458 18.8481 19.7525 18.8481 23.8165C18.8481 27.8819 22.1407 31.177 26.2061 31.177C30.2701 31.177 33.5647 27.8819 33.5647 23.8165C33.5647 19.7525 30.2701 16.458 26.2061 16.458ZM26.2061 19.7278C28.46 19.7278 30.2948 21.5626 30.2948 23.8165C30.2948 26.0719 28.46 27.9047 26.2061 27.9047C23.9527 27.9047 22.1179 26.0719 22.1179 23.8165C22.1179 21.5626 23.9527 19.7278 26.2061 19.7278Z" fill="inherit"/>
<g opacity="0.5">
<path d="M39.2497 0.104492H13.0841L0 22.9999L13.0841 45.8957H39.2497L52.3333 22.9999L39.2497 0.104492ZM37.3506 3.37429L48.5648 22.9999L37.3506 42.624H14.9807L3.76661 22.9999L14.9807 3.37429H37.3506Z" fill="inherit"/>
</g>
</svg>
