<svg width="36" height="36" viewBox="0 0 36 36" fill="none" xmlns="http://www.w3.org/2000/svg">
<g opacity="0.5">
<path d="M9.55161 13.8262H1V22.3775H9.55161V13.8262ZM7.41291 20.2391H3.1371V15.9633H7.41291V20.2391Z" fill="#A463B0"/>
</g>
<g opacity="0.5">
<path d="M9.55161 26.6533H1V35.2049H9.55161V26.6533ZM7.41291 33.0662H3.1371V28.7904H7.41291V33.0662Z" fill="#A463B0"/>
</g>
<path d="M22.3775 13.8262H13.8259V22.3775H22.3775V13.8262ZM20.2405 20.2391H15.9646V15.9633H20.2405V20.2391Z" fill="#A463B0"/>
<g opacity="0.5">
<path d="M22.3775 26.6533H13.8259V35.2049H22.3775V26.6533ZM20.2405 33.0662H15.9646V28.7904H20.2405V33.0662Z" fill="#A463B0"/>
</g>
<g opacity="0.5">
<path d="M35.2032 13.8262H26.6519V22.3775H35.2032V13.8262ZM33.0661 20.2391H28.7902V15.9633H33.0661V20.2391Z" fill="#A463B0"/>
</g>
<g opacity="0.5">
<path d="M22.3775 1H13.8259V9.55162H22.3775V1ZM20.2405 7.4129H15.9646V3.13709H20.2405V7.4129Z" fill="#A463B0"/>
</g>
<g opacity="0.5">
<path d="M35.2032 1H26.6519V9.55162H35.2032V1ZM33.0661 7.4129H28.7902V3.13709H33.0661V7.4129Z" fill="#A463B0"/>
</g>
<path d="M35.2032 26.6533H26.6519V35.2049H35.2032V26.6533ZM33.0661 33.0662H28.7902V28.7904H33.0661V33.0662Z" fill="#A463B0"/>
<path d="M9.55161 1H1V9.55162H9.55161V1ZM7.41291 7.4129H3.1371V3.13709H7.41291V7.4129Z" fill="#A463B0"/>
<g opacity="0.5">
<path d="M6.34413 9.55029H4.20703V13.8261H6.34413V9.55029Z" fill="#A463B0"/>
</g>
<g opacity="0.5">
<path d="M6.34413 22.3774H4.20703V26.6533H6.34413V22.3774Z" fill="#A463B0"/>
</g>
<g opacity="0.5">
<path d="M19.1701 9.55029H17.033V13.8261H19.1701V9.55029Z" fill="#A463B0"/>
</g>
<g opacity="0.5">
<path d="M19.1701 22.3774H17.033V26.6533H19.1701V22.3774Z" fill="#A463B0"/>
</g>
<g opacity="0.5">
<path d="M31.997 9.55029H29.8599V13.8261H31.997V9.55029Z" fill="#A463B0"/>
</g>
<g opacity="0.5">
<path d="M31.997 22.3774H29.8599V26.6533H31.997V22.3774Z" fill="#A463B0"/>
</g>
</svg>
