<svg width="36" height="36" viewBox="0 0 36 36" fill="none" xmlns="http://www.w3.org/2000/svg">
<path d="M7.4129 1C3.87026 1 1 3.87155 1 7.4129C1 10.9555 3.87026 13.8258 7.4129 13.8258C10.9542 13.8258 13.8258 10.9555 13.8258 7.4129C13.8258 3.87155 10.9542 1 7.4129 1ZM7.4129 3.13707C9.76991 3.13707 11.6887 5.05621 11.6887 7.4129C11.6887 9.7712 9.76991 11.6887 7.4129 11.6887C5.05621 11.6887 3.13707 9.7712 3.13707 7.4129C3.13707 5.05621 5.05621 3.13707 7.4129 3.13707Z" fill="#E4935B"/>
<g opacity="0.5">
<path d="M14.8933 5.27539C9.57997 5.27539 5.27344 9.58224 5.27344 14.8955C5.27344 20.2076 9.57997 24.5157 14.8933 24.5157C20.2069 24.5157 24.5134 20.2076 24.5134 14.8955C24.5134 9.58224 20.2069 5.27539 14.8933 5.27539ZM14.8933 7.41246C19.0197 7.41246 22.375 10.7695 22.375 14.8955C22.375 19.0203 19.0197 22.377 14.8933 22.377C10.7672 22.377 7.41181 19.0203 7.41181 14.8955C7.41181 10.7695 10.7672 7.41246 14.8933 7.41246Z" fill="#E4935B"/>
</g>
<path d="M24.5149 13.8262C18.6114 13.8262 13.8262 18.6114 13.8262 24.5149C13.8262 30.4184 18.6114 35.2036 24.5149 35.2036C30.4188 35.2036 35.2036 30.4184 35.2036 24.5149C35.2036 18.6114 30.4188 13.8262 24.5149 13.8262ZM24.5149 15.9633C29.2302 15.9633 33.0665 19.7999 33.0665 24.5149C33.0665 29.2299 29.2302 33.0665 24.5149 33.0665C19.7999 33.0665 15.9636 29.2299 15.9636 24.5149C15.9636 19.7999 19.7999 15.9633 24.5149 15.9633Z" fill="#E4935B"/>
</svg>
