<svg width="36" height="36" viewBox="0 0 36 36" fill="none" xmlns="http://www.w3.org/2000/svg">
<path d="M7.4129 22.3774C3.87155 22.3774 1 25.249 1 28.7903C1 32.3333 3.87155 35.2036 7.4129 35.2036C10.9542 35.2036 13.8258 32.3333 13.8258 28.7903C13.8258 25.249 10.9542 22.3774 7.4129 22.3774ZM7.4129 24.5149C9.76959 24.5149 11.6887 26.4336 11.6887 28.7903C11.6887 31.1486 9.76959 33.0662 7.4129 33.0662C5.05588 33.0662 3.1371 31.1486 3.1371 28.7903C3.1371 26.4336 5.05588 24.5149 7.4129 24.5149Z" fill="#42B8BF"/>
<path d="M18.1021 1C14.5608 1 11.6892 3.87155 11.6892 7.4129C11.6892 10.9559 14.5608 13.8261 18.1021 13.8261C21.6435 13.8261 24.515 10.9559 24.515 7.4129C24.515 3.87155 21.6435 1 18.1021 1ZM18.1021 3.13742C20.4588 3.13742 22.3779 5.05621 22.3779 7.4129C22.3779 9.7712 20.4588 11.6887 18.1021 11.6887C15.7451 11.6887 13.8263 9.7712 13.8263 7.4129C13.8263 5.05621 15.7451 3.13742 18.1021 3.13742Z" fill="#42B8BF"/>
<path d="M28.7903 22.3774C25.249 22.3774 22.3774 25.249 22.3774 28.7903C22.3774 32.3333 25.249 35.2036 28.7903 35.2036C32.3317 35.2036 35.2032 32.3333 35.2032 28.7903C35.2032 25.249 32.3317 22.3774 28.7903 22.3774ZM28.7903 24.5149C31.1474 24.5149 33.0661 26.4336 33.0661 28.7903C33.0661 31.1486 31.1474 33.0662 28.7903 33.0662C26.4336 33.0662 24.5145 31.1486 24.5145 28.7903C24.5145 26.4336 26.4336 24.5149 28.7903 24.5149Z" fill="#42B8BF"/>
<g opacity="0.5">
<path d="M9.14247 27.7202H27.061L18.1025 9.80196L9.14247 27.7202ZM30.5199 29.8576H5.68359L18.1025 5.021L30.5199 29.8576Z" fill="#42B8BF"/>
</g>
</svg>
