<svg width="36" height="36" viewBox="0 0 36 36" fill="none" xmlns="http://www.w3.org/2000/svg">
<path d="M25.5816 19.8955C20.2683 19.8955 15.9614 24.202 15.9614 29.5153H35.2017C35.2017 24.202 30.8949 19.8955 25.5816 19.8955ZM25.5816 22.0326C28.9654 22.0326 31.8302 24.2897 32.7519 27.377H18.4099C19.333 24.2897 22.1981 22.0326 25.5816 22.0326Z" fill="#9550A2"/>
<path d="M25.4943 8.1377C22.5431 8.1377 20.1499 10.5309 20.1499 13.482C20.1499 16.4332 22.5431 18.8264 25.4943 18.8264C28.4454 18.8264 30.8386 16.4332 30.8386 13.482C30.8386 10.5309 28.4454 8.1377 25.4943 8.1377ZM25.4943 10.2748C27.262 10.2748 28.7012 11.714 28.7012 13.482C28.7012 15.2498 27.262 16.689 25.4943 16.689C23.7262 16.689 22.287 15.2498 22.287 13.482C22.287 11.714 23.7262 10.2748 25.4943 10.2748Z" fill="#9550A2"/>
<g opacity="0.5">
<path d="M11.4809 6C8.23447 6 5.60156 8.6316 5.60156 11.8793C5.60156 15.1254 8.23447 17.7573 11.4809 17.7573C14.7269 17.7573 17.3601 15.1254 17.3601 11.8793C17.3601 8.6316 14.7269 6 11.4809 6ZM11.4809 8.13711C13.5439 8.13711 15.2214 9.81625 15.2214 11.8793C15.2214 13.941 13.5439 15.6199 11.4809 15.6199C9.41783 15.6199 7.73997 13.941 7.73997 11.8793C7.73997 9.81625 9.41783 8.13711 11.4809 8.13711Z" fill="#9550A2"/>
</g>
<g opacity="0.5">
<path d="M3.412 27.3775C4.36056 23.7524 7.66357 21.071 11.5823 21.071C14.0522 21.071 16.2769 22.1383 17.8225 23.8333C18.2471 23.2553 18.7349 22.7256 19.2766 22.2553C17.3471 20.2111 14.6143 18.9336 11.5823 18.9336C5.73798 18.9336 1 23.6715 1 29.5146H15.9645C15.9645 28.7801 16.0493 28.0661 16.2055 27.3775H3.412Z" fill="#9550A2"/>
</g>
</svg>
