<svg width="36" height="36" viewBox="0 0 36 36" fill="none" xmlns="http://www.w3.org/2000/svg">
<g opacity="0.5">
<path d="M35.2032 5.27588H1V35.2049H35.2032V5.27588ZM33.0661 33.0662H3.1371V7.41297H33.0661V33.0662Z" fill="#DB5555"/>
</g>
<path d="M28.2672 19.7285L27.3657 19.227V19.0264L28.0669 18.3244C28.167 18.2241 28.167 18.0235 28.0669 17.9232L27.9667 17.8229L27.0651 17.522C27.0651 17.4217 27.0651 17.3214 26.965 17.3214L27.566 16.5191C27.6662 16.4188 27.6662 16.2182 27.4658 16.1179C27.4658 16.1179 27.3657 16.1179 27.3657 16.0176L26.3639 15.817C26.3639 15.7167 26.2638 15.7167 26.2638 15.6165L26.6645 14.7138V14.4129C26.5643 14.3126 26.4641 14.3126 26.3639 14.3126H25.3622C25.3622 14.3126 25.3622 14.2123 25.2621 14.2123L25.4624 13.2094C25.4624 13.0088 25.3622 12.9085 25.2621 12.9085H25.1619L24.1602 13.1091C24.1602 13.0088 24.06 13.0088 23.9598 12.9085V11.9056C23.9598 11.705 23.8596 11.6047 23.6593 11.6047H23.5591L22.6576 12.0059H22.5574L22.3571 11.0029C22.3571 10.8024 22.1567 10.7021 22.0566 10.8023H21.9564L21.155 11.4041C21.0548 11.4041 20.9547 11.4041 20.9547 11.3038L20.6541 10.4012C20.554 10.3009 20.4538 10.2006 20.2535 10.2006C20.2535 10.2006 20.1533 10.2006 20.1533 10.3009L19.3519 11.0029H19.1516L18.6507 10.2006C18.5505 10 18.3502 10 18.1499 10L18.0497 10.1003L17.5488 11.0029H17.3485L16.6473 10.3009C16.5471 10.2006 16.3468 10.2006 16.2466 10.3009L16.1464 10.4012L15.8459 11.3038C15.7457 11.3038 15.6456 11.3038 15.6456 11.4041L14.8442 10.8023C14.6438 10.7021 14.4435 10.7021 14.3433 10.9026V11.0029L14.143 12.0059C14.143 12.0059 14.0428 12.0059 13.9426 12.1062L13.0411 11.705C12.9409 11.6047 12.7406 11.705 12.6404 11.8053V12.9085C12.6404 13.0088 12.5402 13.0088 12.5402 13.1091L11.5385 12.9085C11.3382 12.8082 11.238 12.9085 11.238 13.1091V13.2094L11.4383 14.2123C11.3382 14.2123 11.3382 14.3126 11.238 14.3126H10.2363C10.0359 14.3126 9.93576 14.4129 9.93576 14.6135V14.7138L10.3364 15.6165V15.817L9.33473 16.0176C9.13438 16.0176 9.03421 16.2182 9.03421 16.3185V16.4188L9.63524 17.2212C9.63524 17.3214 9.63524 17.4217 9.53507 17.4217L8.7337 17.8229C8.63352 17.9232 8.53335 18.0235 8.53335 18.2241C8.53335 18.2241 8.53335 18.3244 8.63352 18.3244L9.33473 19.0264V19.227L8.53335 19.7285C8.33301 19.8288 8.33301 20.0294 8.33301 20.1297L8.43318 20.23L9.33473 20.8317V21.0323L8.63352 21.7344C8.53335 21.8347 8.53335 22.0353 8.63352 22.1355L8.7337 22.2358L9.63524 22.5367C9.63524 22.637 9.63524 22.7373 9.73541 22.7373L9.13438 23.5397C9.03421 23.64 9.03421 23.8405 9.23455 23.9408C9.23455 23.9408 9.33473 23.9408 9.33473 24.0411L10.3364 24.2417C10.3364 24.342 10.4366 24.342 10.4366 24.4423L10.0359 25.3449C9.93576 25.4452 10.0359 25.6458 10.1361 25.7461H11.238C11.3382 25.7461 11.3382 25.8464 11.4383 25.8464L11.238 26.8493C11.238 27.0499 11.3382 27.1502 11.4383 27.1502H11.5385L12.5402 26.9496C12.5402 27.0499 12.6404 27.0499 12.7406 27.1502V28.1532C12.7406 28.3538 12.8407 28.4541 13.0411 28.4541H13.1413L14.0428 28.0529H14.143L14.3433 29.0558C14.3433 29.2564 14.5437 29.3567 14.6438 29.2564H14.744L15.5454 28.6546C15.6456 28.6546 15.7457 28.6546 15.7457 28.7549L16.0462 29.6576C16.1464 29.7579 16.2466 29.8582 16.4469 29.8582C16.4469 29.8582 16.5471 29.8582 16.5471 29.7579L17.3485 29.0558H17.5488L18.0497 29.8582C18.1499 29.9585 18.3502 30.0588 18.4504 29.9585L18.5505 29.8582L19.0514 29.0558H19.2517L19.9529 29.7579C20.0531 29.8582 20.2535 29.8582 20.3536 29.7579L20.4538 29.6576L20.7543 28.7549C20.8545 28.7549 20.9547 28.7549 20.9547 28.6546L21.756 29.2564C21.8562 29.3567 22.0566 29.3567 22.1567 29.1561C22.1567 29.1561 22.1567 29.0558 22.2569 29.0558L22.4572 28.0529C22.5574 28.0529 22.5574 27.9526 22.6576 27.9526L23.5591 28.3538C23.6593 28.4541 23.8596 28.3538 23.9598 28.2535V27.1502L24.1602 26.9496L25.1619 27.1502C25.3622 27.1502 25.4624 27.0499 25.4624 26.9496V26.8493L25.2621 25.8464L25.4624 25.6458H26.4641C26.6645 25.6458 26.7646 25.5455 26.7646 25.3449V25.2447L26.3639 24.342C26.3639 24.2417 26.4641 24.2417 26.4641 24.1414L27.4658 23.9408C27.6662 23.9408 27.7664 23.7402 27.6662 23.64V23.5397L27.0651 22.7373L27.1653 22.5367L28.0669 22.2358C28.167 22.1355 28.2672 22.0353 28.2672 21.8347C28.2672 21.8347 28.2672 21.7344 28.167 21.7344L27.3657 21.0323V20.8317L28.167 20.3303C28.3674 20.23 28.3674 20.0294 28.2672 19.7285C28.2672 19.8288 28.2672 19.8288 28.2672 19.7285ZM22.5574 26.7491C22.2569 26.6488 22.0566 26.3479 22.0566 26.047C22.1567 25.7461 22.4572 25.5455 22.7578 25.5455C23.0583 25.6458 23.2586 25.9467 23.2586 26.2476C23.2586 26.6488 22.9581 26.8494 22.5574 26.7491ZM22.3571 24.8435C22.0566 24.7432 21.756 24.9438 21.756 25.2447L21.3554 26.6488C20.4538 27.0499 19.4521 27.2505 18.3502 27.2505C17.2483 27.2505 16.2466 27.0499 15.2449 26.5485L14.9444 25.1444C14.8442 24.8435 14.6438 24.6429 14.3433 24.7432L13.1413 25.0441C12.9409 24.8435 12.7406 24.5426 12.5402 24.342H18.5505C18.6507 24.342 18.6507 24.342 18.6507 24.2417V22.1355C18.6507 22.0353 18.6507 22.0353 18.5505 22.0353H16.8476V20.7314H18.7509C18.9512 20.7314 19.6524 20.7314 19.9529 21.7344C20.0531 22.0353 20.1533 23.0382 20.3536 23.3391C20.4538 23.64 20.9547 24.342 21.4555 24.342H24.5609C24.3605 24.6429 24.1602 24.8435 23.8596 25.1444L22.3571 24.8435ZM14.0428 26.7491C13.7423 26.8494 13.4418 26.6488 13.3416 26.2476C13.2414 25.9467 13.4418 25.6458 13.8425 25.5455C14.2431 25.4452 14.4435 25.6458 14.5437 26.047C14.5437 26.3479 14.3433 26.6488 14.0428 26.7491ZM11.7389 17.522C11.839 17.8229 11.7389 18.2241 11.4383 18.3244C11.1378 18.4247 10.7371 18.3244 10.637 18.0235C10.5368 17.7226 10.637 17.3214 10.9375 17.2212C11.3382 17.1209 11.6387 17.2212 11.7389 17.522ZM11.0376 19.1267L12.3399 18.6253C12.6404 18.525 12.7406 18.2241 12.6404 17.9232L12.3399 17.3214H13.3416V22.0353H11.3382C11.0376 21.0323 10.9375 20.1297 11.0376 19.1267ZM16.6473 18.7256V17.3214H19.1516C19.2517 17.3214 20.0531 17.4217 20.0531 18.0235C20.0531 18.525 19.4521 18.7256 18.9512 18.7256H16.6473ZM25.6627 19.9291V20.4306H24.8614C24.7612 20.4306 24.7612 20.4306 24.7612 20.5308V20.8317C24.7612 21.6341 24.2603 21.8347 23.8596 21.8347C23.459 21.8347 23.0583 21.6341 22.9581 21.4335C22.7578 20.1297 22.3571 19.9291 21.756 19.4276C22.4572 18.9261 23.2586 18.2241 23.2586 17.3214C23.2586 16.3185 22.5574 15.7167 22.1567 15.4159C21.4555 15.0147 20.7543 14.9144 20.554 14.9144H12.9409C14.0428 13.7109 15.4452 12.9085 17.048 12.6076L17.9495 13.6106C18.1499 13.8112 18.4504 13.8112 18.7509 13.6106L19.7526 12.6076C21.8562 13.0088 23.6593 14.3126 24.7612 16.2182L24.06 17.8229C23.9598 18.1238 24.06 18.4247 24.3605 18.525L25.6627 19.1267V19.9291ZM17.9495 11.9056C18.1499 11.705 18.5505 11.705 18.7509 11.9056C18.9512 12.1062 18.9512 12.5073 18.7509 12.7079C18.4504 13.0088 18.1499 13.0088 17.8493 12.7079C17.649 12.5073 17.7492 12.2065 17.9495 11.9056ZM24.8614 17.522C24.9615 17.2212 25.3622 17.1209 25.6627 17.2212C25.9633 17.3214 26.0634 17.7226 25.9633 18.0235C25.8631 18.3244 25.4624 18.4247 25.1619 18.3244C24.8614 18.2241 24.7612 17.8229 24.8614 17.522Z" fill="#DB5555"/>
<path d="M35.2032 1H1V3.13709H35.2032V1Z" fill="#DB5555"/>
</svg>
